<svg xmlns="http://www.w3.org/2000/svg" xmlns:xlink="http://www.w3.org/1999/xlink" width="550.737" height="451.879" viewBox="0 0 550.737 451.879">
  <defs>
    <radialGradient id="radial-gradient" cx="0.541" cy="0.233" r="0.647" gradientTransform="matrix(0.029, -1, 0.68, 0.02, 0.367, 0.769)" gradientUnits="objectBoundingBox">
      <stop offset="0" stop-color="#a400b3"/>
      <stop offset="1" stop-color="#17001a"/>
    </radialGradient>
    <linearGradient id="linear-gradient" x1="0.5" x2="0.5" y2="1" gradientUnits="objectBoundingBox">
      <stop offset="0" stop-color="#17001a"/>
      <stop offset="1" stop-color="#a400b3"/>
    </linearGradient>
    <linearGradient id="linear-gradient-4" x1="-0.482" y1="0.951" x2="2.618" y2="-0.557" gradientUnits="objectBoundingBox">
      <stop offset="0" stop-color="#17001a"/>
      <stop offset="0.345" stop-color="#a400b3"/>
      <stop offset="1" stop-color="#cfe316"/>
    </linearGradient>
  </defs>
  <g id="about-image" transform="translate(-57 6.666)">
    <g id="Group_35" data-name="Group 35" transform="translate(-128.005 -600.986)">
      <g id="undraw_My_universe_re_txot" transform="translate(185.006 594.986)">
        <path id="Path_51" data-name="Path 51" d="M286.036,531.857c34.76-18.02,106.614-48.248,197.315-48.248s162.555,30.229,197.315,48.248c33.84,17.543,61.055,38.226,73.875,55.1,4.673-6.36-2.184-119.516-21.167-164.393a363.7,363.7,0,0,0-335.4-222.315,192.524,192.524,0,0,0-137.029,56.761q-1.144,1.144-2.266,2.3c-40.17,41.5-58.927,99.228-52.078,156.574,4.875,40.828,16.892,126.226,33.869,144.332a323.239,323.239,0,0,1,45.568-28.364Z" transform="translate(-205.219 -147.056)" fill="url(#radial-gradient)"/>
        <ellipse id="Ellipse_8" data-name="Ellipse 8" cx="57.749" cy="12.047" rx="57.749" ry="12.047" transform="translate(224.422 340.463)" fill="url(#linear-gradient)"/>
        <path id="Path_54" data-name="Path 54" d="M718.416,193.883a54.248,54.248,0,1,0-104.168.554,403.144,403.144,0,0,0,104.168-.554Z" transform="translate(-325.414 -124.746)" fill="#5d0066"/>
        <circle id="Ellipse_9" data-name="Ellipse 9" cx="6.341" cy="6.341" r="6.341" transform="translate(347.183 17.616)" fill="#17001a"/>
        <ellipse id="Ellipse_12" data-name="Ellipse 12" cx="39.175" cy="6.494" rx="39.175" ry="6.494" transform="translate(244.63 345.913)" fill="#17001a"/>
        <ellipse id="Ellipse_13" data-name="Ellipse 13" cx="65.909" cy="13.75" rx="65.909" ry="13.75" transform="translate(87.334 400.055)" fill="url(#linear-gradient)"/>
        <ellipse id="Ellipse_14" data-name="Ellipse 14" cx="98.274" cy="20.502" rx="98.274" ry="20.502" transform="translate(323.392 410.21)" fill="url(#linear-gradient)"/>
        <ellipse id="Ellipse_15" data-name="Ellipse 15" cx="50.522" cy="8.375" rx="50.522" ry="8.375" transform="translate(102.521 404.988)" fill="#17001a"/>
        <ellipse id="Ellipse_16" data-name="Ellipse 16" cx="86.376" cy="14.319" rx="86.376" ry="14.319" transform="translate(335.312 415.09)" fill="#17001a"/>
        <circle id="Ellipse_17" data-name="Ellipse 17" cx="4.932" cy="4.932" r="4.932" transform="translate(35.777 219.813)" fill="#17001a"/>
        <circle id="Ellipse_18" data-name="Ellipse 18" cx="4.932" cy="4.932" r="4.932" transform="translate(380.992 291.674)" fill="#17001a"/>
        <path id="Path_68" data-name="Path 68" d="M313.443,564.386h-2.466V561.92a3.17,3.17,0,0,0-6.341,0v2.466H302.17a3.17,3.17,0,0,0,0,6.341h2.466v2.466a3.17,3.17,0,0,0,6.341,0v-2.466h2.466a3.17,3.17,0,0,0,0-6.341Z" transform="translate(-232.929 -252.985)" fill="#17001a"/>
        <path id="Path_69" data-name="Path 69" d="M831.51,479.681h-1.282V478.4a1.649,1.649,0,1,0-3.3,0v1.282h-1.282a1.649,1.649,0,1,0,0,3.3h1.282v1.282a1.649,1.649,0,0,0,3.3,0v-1.282h1.282a1.649,1.649,0,0,0,0-3.3Z" transform="translate(-388.055 -228.756)" fill="#17001a"/>
        <path id="Path_70" data-name="Path 70" d="M300.51,358.681h-1.282V357.4a1.649,1.649,0,1,0-3.3,0v1.282h-1.282a1.649,1.649,0,0,0,0,3.3h1.282v1.282a1.649,1.649,0,1,0,3.3,0v-1.282h1.282a1.649,1.649,0,0,0,0-3.3Z" transform="translate(-231.156 -193.003)" fill="#17001a"/>
        <path id="Path_71" data-name="Path 71" d="M435.51,358.681h-1.282V357.4a1.649,1.649,0,1,0-3.3,0v1.282h-1.282a1.649,1.649,0,1,0,0,3.3h1.282v1.282a1.649,1.649,0,1,0,3.3,0v-1.282h1.282a1.649,1.649,0,0,0,0-3.3Z" transform="translate(-271.046 -193.003)" fill="#17001a"/>
        <path id="Path_72" data-name="Path 72" d="M900.51,598.681h-1.282V597.4a1.649,1.649,0,1,0-3.3,0v1.282h-1.282a1.649,1.649,0,0,0,0,3.3h1.282v1.282a1.649,1.649,0,0,0,3.3,0v-1.282h1.282a1.649,1.649,0,0,0,0-3.3Z" transform="translate(-408.443 -263.918)" fill="#17001a"/>
        <path id="Path_73" data-name="Path 73" d="M690.51,403.681h-1.282V402.4a1.649,1.649,0,0,0-3.3,0v1.282h-1.282a1.649,1.649,0,0,0,0,3.3h1.282v1.282a1.649,1.649,0,0,0,3.3,0v-1.282h1.282a1.649,1.649,0,0,0,0-3.3Z" transform="translate(-346.393 -206.299)" fill="#17001a"/>
        <path id="Path_74" data-name="Path 74" d="M369.51,453.681h-1.282V452.4a1.649,1.649,0,0,0-3.3,0v1.282h-1.282a1.649,1.649,0,1,0,0,3.3h1.282v1.282a1.649,1.649,0,0,0,3.3,0v-1.282h1.282a1.649,1.649,0,1,0,0-3.3Z" transform="translate(-251.544 -221.073)" fill="#17001a"/>
        <path id="Path_75" data-name="Path 75" d="M375.51,287.681h-1.282V286.4a1.649,1.649,0,1,0-3.3,0v1.282h-1.282a1.649,1.649,0,1,0,0,3.3h1.282v1.282a1.649,1.649,0,1,0,3.3,0v-1.282h1.282a1.649,1.649,0,0,0,0-3.3Z" transform="translate(-253.317 -172.024)" fill="#17001a"/>
        <path id="Path_54-2" data-name="Path 54" d="M718.416,193.883a54.248,54.248,0,1,0-104.168.554,403.144,403.144,0,0,0,104.168-.554Z" transform="translate(1007.088 233.544) rotate(180)" fill="#5d0066"/>
      </g>
      <g id="undraw_my_answer_iw6k" transform="translate(185.064 660.97)">
        <path id="Path_91" data-name="Path 91" d="M103.947,4.35Z" transform="translate(-103.947 -4.35)"/>
        <path id="Path_56" data-name="Path 56" d="M.365,3.8C-.692,5.443.8,10.5,1.657,12.221a7.268,7.268,0,0,0,4.756,3.6L36.18,67.515l13.615-7.842L16.256,11.327c.931-3.1-.037-9.855-3.684-10.981S2.156.958.365,3.8Z" transform="matrix(-0.616, -0.788, 0.788, -0.616, 158.741, 175.989)" fill="#e39999"/>
        <path id="Path_57" data-name="Path 57" d="M504.979,369.982a3.39,3.39,0,0,1,.389-2.8l9.159-14.36a9.425,9.425,0,0,1,17.23,7.644l-4.613,16.453a3.394,3.394,0,0,1-4.65,2.184l-15.647-7a3.39,3.39,0,0,1-1.868-2.126Z" transform="translate(-335.945 -264.432)" fill="#5d0066"/>
        <path id="Path_65" data-name="Path 65" d="M619.283,313.583a7.417,7.417,0,0,0,.192,1.152L595.981,340.6l-8.3-1.789-4.336,12.17,14.381,4.593a5.636,5.636,0,0,0,6.389-2.22l22.207-32.972a7.4,7.4,0,0,0,7.123-4.467c1.215-2.825,2.681-5.156.469-7.292s-5.716-5.32-8.5-4.007-6.384,5.9-6.139,8.965Z" transform="matrix(1, 0.017, -0.017, 1, -323.675, -258.666)" fill="#e39999"/>
        <path id="Path_66" data-name="Path 66" d="M587.784,354.068l-5.447,15.057a3.17,3.17,0,0,1-4.485,1.713L563.8,363.266a8.806,8.806,0,1,1,6.041-16.543l15.595,3.159a3.17,3.17,0,0,1,2.351,4.186Z" transform="matrix(1, 0.017, -0.017, 1, -315.974, -270.908)" fill="#5d0066"/>
        <path id="Path_95" data-name="Path 95" d="M383.339,566.559l4.493,22.465L375.1,599.508l-5.242-32.949Z" transform="translate(-116.981 -251.01)" fill="#f19d9d"/>
        <path id="Path_96" data-name="Path 96" d="M522.2,556.978l1.5,26.959-12.731-2.247-1.5-23.215Z" transform="translate(-329.228 -246.67)" fill="#f19d9d"/>
        <path id="Path_97" data-name="Path 97" d="M721.062,411.913l1.5,7.488s8.237,1.5,5.988,17.223l5.988,55.415,9.735,68.894L726.3,563.18,691.852,461.336l-20.968,96.6H652.168L655.911,450.1s-3-22.466,7.488-32.95S712.075,405.922,721.062,411.913Z" transform="translate(-474.922 -241.641)" fill="#17001a"/>
        <path id="Path_98" data-name="Path 98" d="M619.007,718.682s-1.5-5.988,2.247-6.739,6.739,2.247,7.488,3.745,17.973,22.466,17.973,22.466,12.731,14.977-5.988,14.231-19.47-9.735-19.47-9.735,0-1.5-3.745-1.5-13.48-5.242-12.731-8.986,7.045-16.686,7.045-16.686S616.012,726.17,619.007,718.682Z" transform="translate(-355.644 -379.169)" fill="#2f2e41"/>
        <path id="Path_99" data-name="Path 99" d="M790.153,705.84s6.739-4.493,10.484-1.5a36.6,36.6,0,0,0,5.242,3.745l.061.454a36.656,36.656,0,0,1-1.78,16.437c-.444,1.332.43,2.29.222,3.328-1.123,5.616-2.247,12.731-13.48,9.735S790.153,705.84,790.153,705.84Z" transform="translate(-609.913 -375.315)" fill="#2f2e41"/>
        <path id="Path_92" data-name="Path 92" d="M742.469,210.856l-9.735,23.964-5.988,16.475-15.728-23.216s9.735-9.735,9.735-22.466Z" transform="translate(-529.419 -45.845) rotate(-8)" fill="#e39999"/>
        <g id="Head" transform="translate(-125.059 -1008.984)">
          <path id="Path_121" data-name="Path 121" d="M64.454.261a4.325,4.325,0,0,0-2.508.56,6.544,6.544,0,0,0-1.7,2.239,26.789,26.789,0,0,1-7.3,8.243c-2.168,1.589-4.925,3.569-4.554,6.5a8.783,8.783,0,0,0,1.057,2.743c2,4.038,7.459,7.159,6.922,11.767,1.987-3.327-.671-4.972,1.317-8.3.946-1.585,2.591-3.373,4.02-2.378.478.333.793.931,1.291,1.223,1.189.7,2.453-.636,3.506-1.581,3.628-3.257,8.789-2.4,13.3-1.389,2.132.479,4.473,1.108,5.733,3.145,1.657,2.679-1.575,5.572-2.39,8.6a1.65,1.65,0,0,0,1.771,2.054c1.354-.134,2.96-.243,3.04-.838,1.7.061,3.793-.132,4.523-1.907a7.447,7.447,0,0,0,.35-2.171c.268-2.982,1.534-5.7,2.372-8.539s1.2-6.163-.212-8.679A10.058,10.058,0,0,0,93.147,9.3C85.118,1.531,74.563.249,64.454.261Z" transform="translate(278.045 1035.417)" fill="#2f2e41"/>
          <path id="Path_122" data-name="Path 122" d="M73.8,53.83A17.225,17.225,0,1,0,56.575,36.605,17.225,17.225,0,0,0,73.8,53.83Z" transform="translate(275.425 1028.62)" fill="#f6a1a1"/>
          <path id="Path_123" data-name="Path 123" d="M67.312,7.218a3.963,3.963,0,0,0-2.042.4A4.76,4.76,0,0,0,63.889,9.2a20.108,20.108,0,0,1-5.941,5.826c-1.765,1.123-4.009,2.523-3.707,4.593a5.745,5.745,0,0,0,.86,1.939,15.25,15.25,0,0,1,1.853,9.505L61.808,24c.77-1.12,2.109-2.384,3.272-1.681.39.235.645.658,1.051.865.968.493,2-.45,2.854-1.117,2.954-2.3,7.154-1.7,10.83-.982,1.735.339,3.641.783,4.667,2.223,1.7,2.393-.076,5.851.92,8.615a2.542,2.542,0,0,0,1.05-1.677c1.388.043,3.088-.094,3.682-1.348a4.635,4.635,0,0,0,.285-1.534c.218-2.107,1.249-4.03,1.931-6.036s.979-4.356-.172-6.134a7.425,7.425,0,0,0-1.509-1.592C84.134,8.115,75.541,7.209,67.312,7.218Z" transform="translate(276.037 1033.028)" fill="#2f2e41"/>
        </g>
        <path id="Path_93" data-name="Path 93" d="M689.909,292.36s-5.988,52.416-1.5,52.416,29.011-5.509,34.86-5.5,10.949,0,10.949,0,14.1,3.248,19.342-1.246-7.554-59.1-7.554-59.1l4.672-28.511s-8.349-4.493-12.841,0l-1.37-1.625-3.894-4.6-5.968,5.474-.07.254-2.179,7.983s-3.19-10.843-5.444-13.1a1.587,1.587,0,0,0-.547-.374c-2.247-.749-6.195-6.017-6.195-6.017l-8.887,4.541-.644.726-18.721,5.242Z" transform="translate(-502.31 -164.069)" fill="#5d0066"/>
        <path id="Path_100" data-name="Path 100" d="M0,0Z" transform="matrix(0.375, -0.927, 0.927, 0.375, 162.988, 182.857)" fill="#ffb8b8"/>
      </g>
    </g>
    <g id="earth-globe-with-continents-maps" transform="translate(342.548 -6.666)">
      <path id="Path_101" data-name="Path 101" d="M96.079,39.049l.955.685h.891V38.02l2.808-.272,2.668,1.987h4.385l.308-.282q-.659-2.217-1.488-4.354l-2.861.048-1.435-1.576-.277-2.534-1.471.8-.788,3.1L97.65,32.677l-.086-2.135-2.049-1.765-.755-.752H92.384l.747,2.118,2.861,1.6.5.528-.621.31.029,1.679-1.395.583-1.189-.26-.745-1.053,1.937.1.523-.7-4.287-2.892-.33-1.232L88.67,30.375l-1.765-.363-2.687,3.494-.53,1.368-1.719.155-2.543.017L77.9,34.335l-.449-3.021L78,29.874l2.589-.566,2.823.566.346-1.562-1.2-.284.408-2.434,2.842-.444L87.8,22.344,89.85,22l1.851.275h.683l-.377-2.637-2.25.908-.793-1.97-1.306-.182-.246-1.349,1.065-1.161,2.534-.993.652-1.165a54.769,54.769,0,0,0-68.538-3.2l2.77-.021,1.235.683,2.326.5.182.915,3.7.136-.5-1.187-3.286-.093.774-.728-.27-.869H27.082l3.241-2.419h3.1l1.459,2.011,2.422.136,1.459-1.416,1.1.547-2.011,1.963s-2.782.05-2.646.05a9.2,9.2,0,0,1,.229,1.915l3.374-.093.365-.91L41.5,11.5l.275-1.368L40.408,9.9l.456-1.232,1.048-.318,3.652.182L43.551,10.36l.325,1.414,2.1.32-.136-2.555,2.008-1.051,3.561-.411,5.156,2.283v1.963l1.643.411-.824,1.552H55.054l-.69,1.779-5.314-1.254,4.182-2.228-1.593-1.354-3.606.456-.315.327-.012,0-.055.076-1.039,1.079L44.9,13.3l.136.855.6.248-.024.282-1.4.2-.1.81-1.335.069-.241-1.61-2.4.728-4.9,2.866.549,2.018,1.368.893,2.737.377v3.112l1.266-.2,1.165-2.431,2.911-.922V16.863l1.619-1.223,3.914.924L50.5,19.031h1.051l2.878-1.414.139,3.238,2.094,1.278-.088,1.92-2.006.683.136.635,2.419,1.1-.05,1.323-.7.06a.192.192,0,0,0-.007-.036l-3.052-.941L53.18,25.9h0l.893-.614v-.893l-.96-.241-.239.824-1.684.26-.167-.055v.084l-.583.088-.475-.96-.549-.241h-1.2l-.545.449v.993l1.025.342,1.013.143-.227.1L48.556,27.2l-.406-.511-.893-.236-2.434,2.288.318.26-3.592,1.989L38.17,34.509l-.232,1.564L34.552,38.3l-1.679,1.688.186,3.377L30.731,42.28l.017-1.975-6.479,0-3.355,1.7-1.457,2.687-.578,2.13.943,2.066,2.644.322,4.2-2.808.368,1.392-1.282,2.422,3.2.547.32,4.939,4.382.745,2.785-3.219,3.379.688L41,55.566l3.241-.191.091-.958,1.782.865,2.008,3.148,3.468.048,1.28,2.24.182,2.737,3.835,1.459,4.838.05,1.416,2.324,2.145.688L64.877,69.9l-2.35,2.985L61.842,79.5l-2.123,1.677-3.148-.093L55.523,82.9l.779,3.429-3.427,4.38L51.78,92.723,48.516,94.29l-2.147.327-.088.91,1.507.432-.182.982-1.349,1.3.819,1.034,1.624.045-.091,1.251-.432,1.235-.139,1,2.4,2.023-.32,1.051-3.269-.062L43.6,102.983l-2.534-4.454.353-4.3L39.5,91.672l.776-4.335-1.139-.318v-9.4s-3.2-2.422-3.379-2.422-1.691-.411-1.691-.411l-.32-1.777L29.594,67.8,30,65.93l.136-3.059,2.875-2.011-.411-3.425-4.2-.315-3.286-3.745-2.328-.645-1.5-.277.182-1.368-1.918-.272v.776l-4.8-1.2-1.93-2.952.786-1.431-3.035-4.43-.521-3.241H8.824l.408,3.148,2.1,3.241-.229,1.28-1.779-.275L7.133,42V37.657l-2.283-1.1V33.434A54.91,54.91,0,0,0,98,89.557H96.188V85.9l-2.1-2.823V78.69l-1.6-1.6-.141-1.827,2.035-3.881-3.852-6.8.451-4.616-3.468-.358-1.278-1.278H83.908l-1.185,1.094h-4.11l-.139.365H76.19l-5.244-5.978.043-4.657.867-.318.322-1.782H70.945l-.5-1.87,6.068-4.38V37.7l2.971-1.65,1.2.119h2.443l1.913-1.027,6.164-.48v3.15ZM80.67,19.464l.5-.774,1.805-.365.451,2.192.96,1.55.638.733,1.163.454-1.1,1.3-2.123.2h-1.6l.179-1.894,1.328-.275-.112-.891-1.237-.776-.865-.592,0-.869Zm-2.964,3.425,1.1-1.758,1.478-.344,1.051.456-.1,1.187-2.259,1.6H77.7V22.888ZM47.861,29.644l-1.144.1.062-.8.511-.638.688.54Zm4.01-1.4-.781.067-.158.755-.6.375-.965.081c-.033-.227-.053-.4-.053-.4h-.375v-.812h1.574l.325-.838.626-.012.714.148Z" transform="translate(0)" fill="url(#linear-gradient-4)"/>
    </g>
  </g>
</svg>
