<svg xmlns="http://www.w3.org/2000/svg" width="35.684" height="39.209" viewBox="0 0 35.684 39.209">
  <g id="rubik" transform="translate(-22.801 0)">
    <path id="Path_359" data-name="Path 359" d="M58.064,9.946,56.055,8.787a.58.58,0,1,0-.58,1l1.27.733-4.312,2.489-4.639-2.68,4.3-2.494,3.385,1.953c.277.16.069-.091.229-.369s.628-.475.35-.635L41.025.113a.844.844,0,0,0-.848,0L24.968,9.06c-.276.162.631-.07.794.206.108.184-.6.672-.4.672.1,0-.092.176,0,.122l3.853-2.15,4.24,2.45-4.672,2.725-4.243-2.425,1.093-.721c.276-.162.295-.4.132-.672a.58.58,0,0,0-.794-.206l-1.751,1.03a.846.846,0,0,0-.415.726V28.673a.844.844,0,0,0,.424.731L40.183,39.1a.845.845,0,0,0,.839,0l17.041-9.835a.845.845,0,0,0,.421-.73V10.676a.845.845,0,0,0-.421-.73Zm-23.832,7.59v4.686l-4.881-2.79V14.746Zm23.094-1.326L53.013,18.7V14.017l4.313-2.489Zm-5.472,3.158-4.881,2.817V17.5l4.881-2.817ZM40.023,20.847v4.686l-4.632-2.648V18.2Zm1.159,6.02,4.632-2.673v4.683l-4.632,2.673Zm0-1.339V20.845l4.632-2.673v4.683ZM40.6,19.842,35.973,17.2l4.644-2.7,4.617,2.668ZM28.192,18.77,23.96,16.351V11.665l4.231,2.419ZM23.96,17.686,28.192,20.1v4.686L23.96,22.372Zm5.391,3.081,4.881,2.79v4.686l-4.881-2.79Zm6.04,3.453,4.632,2.648v4.686l-4.632-2.648Zm4.632,8.669v4.782l-4.632-2.647V30.242Zm1.159,0,4.632-2.673v4.779l-4.632,2.673Zm5.791-3.342,4.881-2.817v4.778l-4.881,2.817Zm0-1.339V23.524l4.881-2.817V25.39Zm6.04-8.169,4.313-2.489v4.683l-4.313,2.489Zm-1.739-6.356L46.393,16.5l-4.621-2.67L46.639,11ZM40.616,13.16l-4.855-2.805,4.855-2.831,4.866,2.812Zm6.022-3.5L41.769,6.851l4.283-2.5L50.933,7.17ZM40.605,1.209,44.9,3.685l-4.283,2.5-4.27-2.467ZM30.36,7.234l4.834-2.843L39.46,6.855,34.6,9.687Zm4.247,3.793,4.852,2.8-4.65,2.7-4.868-2.783ZM23.96,23.707l4.231,2.419v3.757c0,.32.259-.58.58-.58s.58.9.58.58V26.789l4.881,2.79v4.782l-4.881-2.79V29.883a.58.58,0,1,0-1.159,0v1.024L23.96,28.489Zm29.053,7.131V26.06l4.313-2.489v4.778Z" transform="translate(0 0)" fill="#fff"/>
  </g>
</svg>
