<svg xmlns="http://www.w3.org/2000/svg" width="32" height="32" viewBox="0 0 32 32">
  <g id="instagram" transform="translate(0 -0.405)">
    <g id="Group_75" data-name="Group 75" transform="translate(0.858 1.23)">
      <path id="Path_297" data-name="Path 297" d="M211.86,209.43a2.43,2.43,0,1,1-2.43-2.43A2.43,2.43,0,0,1,211.86,209.43Zm0,0" transform="translate(-194.3 -194.268)" fill="#fff"/>
      <path id="Path_298" data-name="Path 298" d="M148.682,137.387a2.732,2.732,0,0,0-1.566-1.566,4.565,4.565,0,0,0-1.532-.284c-.87-.04-1.131-.048-3.334-.048s-2.464.008-3.334.048a4.567,4.567,0,0,0-1.532.284,2.733,2.733,0,0,0-1.566,1.566,4.567,4.567,0,0,0-.284,1.532c-.04.87-.048,1.131-.048,3.334s.009,2.464.048,3.334a4.565,4.565,0,0,0,.284,1.532,2.733,2.733,0,0,0,1.566,1.566,4.56,4.56,0,0,0,1.532.284c.87.04,1.131.048,3.334.048s2.465-.008,3.334-.048a4.56,4.56,0,0,0,1.532-.284,2.733,2.733,0,0,0,1.566-1.566,4.569,4.569,0,0,0,.284-1.532c.04-.87.048-1.131.048-3.334s-.008-2.464-.048-3.334A4.56,4.56,0,0,0,148.682,137.387Zm-6.432,9.1a4.237,4.237,0,1,1,4.237-4.237A4.237,4.237,0,0,1,142.25,146.49Zm4.4-7.652a.99.99,0,1,1,.99-.99A.99.99,0,0,1,146.654,138.839Zm0,0" transform="translate(-127.112 -127.084)" fill="#fff"/>
    </g>
    <path id="Path_299" data-name="Path 299" d="M16,0A16,16,0,1,0,32,16,16,16,0,0,0,16,0Zm9.132,19.788a6.741,6.741,0,0,1-.427,2.23,4.7,4.7,0,0,1-2.687,2.687,6.745,6.745,0,0,1-2.23.427c-.98.045-1.293.055-3.788.055s-2.808-.011-3.788-.055a6.745,6.745,0,0,1-2.23-.427A4.7,4.7,0,0,1,7.3,22.018a6.739,6.739,0,0,1-.427-2.23c-.045-.98-.056-1.293-.056-3.788s.01-2.808.055-3.788a6.741,6.741,0,0,1,.427-2.23A4.7,4.7,0,0,1,9.982,7.295a6.747,6.747,0,0,1,2.23-.427c.98-.045,1.293-.055,3.788-.055s2.808.011,3.788.056a6.748,6.748,0,0,1,2.23.427,4.7,4.7,0,0,1,2.687,2.687,6.74,6.74,0,0,1,.427,2.23c.045.98.055,1.293.055,3.788S25.177,18.808,25.132,19.788Zm0,0" transform="translate(0 0.405)" fill="#fff"/>
  </g>
</svg>
