<svg id="instagram" xmlns="http://www.w3.org/2000/svg" width="32" height="32" viewBox="0 0 32 32">
  <path id="Path_297" data-name="Path 297" d="M213.2,210.1a3.1,3.1,0,1,1-3.1-3.1A3.1,3.1,0,0,1,213.2,210.1Zm0,0" transform="translate(-194.101 -194.101)" fill="#fff"/>
  <path id="Path_298" data-name="Path 298" d="M150.365,137.629a3.081,3.081,0,0,0-1.766-1.766,5.147,5.147,0,0,0-1.727-.32c-.981-.045-1.275-.054-3.76-.054s-2.779.009-3.76.054a5.15,5.15,0,0,0-1.727.32,3.082,3.082,0,0,0-1.766,1.766,5.149,5.149,0,0,0-.32,1.728c-.045.981-.054,1.275-.054,3.76s.01,2.778.054,3.76a5.148,5.148,0,0,0,.32,1.727,3.081,3.081,0,0,0,1.766,1.766,5.141,5.141,0,0,0,1.728.32c.981.045,1.275.054,3.759.054s2.779-.009,3.76-.054a5.142,5.142,0,0,0,1.728-.32,3.081,3.081,0,0,0,1.766-1.766,5.152,5.152,0,0,0,.32-1.727c.045-.981.054-1.275.054-3.76s-.009-2.779-.054-3.76A5.141,5.141,0,0,0,150.365,137.629Zm-7.253,10.264a4.777,4.777,0,1,1,4.777-4.777A4.777,4.777,0,0,1,143.112,147.893Zm4.966-8.627a1.116,1.116,0,1,1,1.116-1.116A1.117,1.117,0,0,1,148.079,139.266Zm0,0" transform="translate(-127.112 -127.116)" fill="#fff"/>
  <path id="Path_299" data-name="Path 299" d="M16,0A16,16,0,1,0,32,16,16,16,0,0,0,16,0Zm9.132,19.788a6.741,6.741,0,0,1-.427,2.23,4.7,4.7,0,0,1-2.687,2.687,6.745,6.745,0,0,1-2.23.427c-.98.045-1.293.055-3.788.055s-2.808-.011-3.788-.055a6.745,6.745,0,0,1-2.23-.427A4.7,4.7,0,0,1,7.3,22.018a6.739,6.739,0,0,1-.427-2.23c-.045-.98-.056-1.293-.056-3.788s.01-2.808.055-3.788a6.741,6.741,0,0,1,.427-2.23A4.7,4.7,0,0,1,9.982,7.295a6.747,6.747,0,0,1,2.23-.427c.98-.045,1.293-.055,3.788-.055s2.808.011,3.788.056a6.748,6.748,0,0,1,2.23.427,4.7,4.7,0,0,1,2.687,2.687,6.74,6.74,0,0,1,.427,2.23c.045.98.055,1.293.055,3.788S25.177,18.808,25.132,19.788Zm0,0" fill="#fff"/>
</svg>
