<svg id="browser" xmlns="http://www.w3.org/2000/svg" width="36.553" height="36.553" viewBox="0 0 36.553 36.553">
  <g id="Group_40" data-name="Group 40">
    <g id="Group_39" data-name="Group 39">
      <path id="Path_275" data-name="Path 275" d="M33.811,0H2.741A2.745,2.745,0,0,0,0,2.741v31.07a2.745,2.745,0,0,0,2.741,2.741h31.07a2.745,2.745,0,0,0,2.741-2.741V2.741A2.745,2.745,0,0,0,33.811,0Zm1.523,33.811a1.525,1.525,0,0,1-1.523,1.523H2.741a1.525,1.525,0,0,1-1.523-1.523V2.741A1.525,1.525,0,0,1,2.741,1.218h31.07a1.525,1.525,0,0,1,1.523,1.523Z" fill="#fff"/>
    </g>
  </g>
  <g id="Group_42" data-name="Group 42" transform="translate(2.437 2.437)">
    <g id="Group_41" data-name="Group 41">
      <path id="Path_276" data-name="Path 276" d="M37.18,34.133H34.743a.609.609,0,0,0-.609.609v2.437a.609.609,0,0,0,.609.609H37.18a.609.609,0,0,0,.609-.609V34.742A.609.609,0,0,0,37.18,34.133Zm-.609,2.437H35.352V35.351h1.218Z" transform="translate(-34.134 -34.133)" fill="#fff"/>
    </g>
  </g>
  <g id="Group_44" data-name="Group 44" transform="translate(7.311 2.437)">
    <g id="Group_43" data-name="Group 43">
      <path id="Path_277" data-name="Path 277" d="M105.447,34.133H103.01a.609.609,0,0,0-.609.609v2.437a.609.609,0,0,0,.609.609h2.437a.609.609,0,0,0,.609-.609V34.742A.609.609,0,0,0,105.447,34.133Zm-.609,2.437h-1.218V35.351h1.218Z" transform="translate(-102.401 -34.133)" fill="#fff"/>
    </g>
  </g>
  <g id="Group_46" data-name="Group 46" transform="translate(12.184 2.437)">
    <g id="Group_45" data-name="Group 45">
      <path id="Path_278" data-name="Path 278" d="M173.713,34.133h-2.437a.609.609,0,0,0-.609.609v2.437a.609.609,0,0,0,.609.609h2.437a.609.609,0,0,0,.609-.609V34.742A.609.609,0,0,0,173.713,34.133ZM173.1,36.57h-1.218V35.351H173.1Z" transform="translate(-170.667 -34.133)" fill="#fff"/>
    </g>
  </g>
  <g id="Group_48" data-name="Group 48">
    <g id="Group_47" data-name="Group 47">
      <path id="Path_279" data-name="Path 279" d="M33.811,0H2.741A2.745,2.745,0,0,0,0,2.741V7.92a.609.609,0,0,0,.609.609H35.943a.609.609,0,0,0,.609-.609V2.741A2.745,2.745,0,0,0,33.811,0Zm1.523,7.311H1.218V2.741A1.525,1.525,0,0,1,2.741,1.218h31.07a1.525,1.525,0,0,1,1.523,1.523Z" fill="#fff"/>
    </g>
  </g>
  <g id="Group_50" data-name="Group 50" transform="translate(4.264 10.357)">
    <g id="Group_49" data-name="Group 49">
      <path id="Path_280" data-name="Path 280" d="M85.5,145.067H61.991a2.261,2.261,0,0,0-2.258,2.258v13.76a2.261,2.261,0,0,0,2.258,2.258H85.5a2.261,2.261,0,0,0,2.258-2.258v-13.76A2.261,2.261,0,0,0,85.5,145.067Zm1.04,16.018a1.041,1.041,0,0,1-1.04,1.04H61.991a1.041,1.041,0,0,1-1.04-1.04v-13.76a1.041,1.041,0,0,1,1.04-1.04H85.5a1.041,1.041,0,0,1,1.04,1.04v13.76Z" transform="translate(-59.733 -145.067)" fill="#fff"/>
    </g>
  </g>
  <g id="Group_52" data-name="Group 52" transform="translate(26.196 17.667)">
    <g id="Group_51" data-name="Group 51">
      <path id="Path_281" data-name="Path 281" d="M369.98,247.467h-2.437a.609.609,0,0,0-.609.609v2.437a.609.609,0,0,0,.609.609h2.437a.609.609,0,0,0,.609-.609v-2.437A.609.609,0,0,0,369.98,247.467Zm-.609,2.437h-1.219v-1.218h1.219Z" transform="translate(-366.934 -247.467)" fill="#fff"/>
    </g>
  </g>
  <g id="Group_54" data-name="Group 54" transform="translate(6.701 12.793)">
    <g id="Group_53" data-name="Group 53">
      <path id="Path_282" data-name="Path 282" d="M111.534,179.2H94.476a.609.609,0,0,0-.609.609v12.184a.609.609,0,0,0,.609.609h17.058a.609.609,0,0,0,.609-.609V179.809A.609.609,0,0,0,111.534,179.2Zm-.609,12.184H95.085V180.418h15.84Z" transform="translate(-93.867 -179.2)" fill="#fff"/>
    </g>
  </g>
  <g id="Group_56" data-name="Group 56" transform="translate(14.621 32.288)">
    <g id="Group_55" data-name="Group 55">
      <path id="Path_283" data-name="Path 283" d="M212.111,452.267h-6.7a.609.609,0,0,0,0,1.218h6.7a.609.609,0,1,0,0-1.218Z" transform="translate(-204.8 -452.267)" fill="#fff"/>
    </g>
  </g>
  <g id="Group_58" data-name="Group 58" transform="translate(15.84 29.851)">
    <g id="Group_57" data-name="Group 57">
      <path id="Path_284" data-name="Path 284" d="M226.741,418.133h-4.264a.609.609,0,0,0,0,1.218h4.264a.609.609,0,0,0,0-1.218Z" transform="translate(-221.867 -418.133)" fill="#fff"/>
    </g>
  </g>
  <g id="Group_60" data-name="Group 60" transform="translate(4.874 32.288)">
    <g id="Group_59" data-name="Group 59">
      <path id="Path_285" data-name="Path 285" d="M74.968,452.267H68.876a.609.609,0,0,0,0,1.218h6.092a.609.609,0,0,0,0-1.218Z" transform="translate(-68.267 -452.267)" fill="#fff"/>
    </g>
  </g>
  <g id="Group_62" data-name="Group 62" transform="translate(6.092 29.851)">
    <g id="Group_61" data-name="Group 61">
      <path id="Path_286" data-name="Path 286" d="M89.6,418.133H85.943a.609.609,0,0,0,0,1.218H89.6a.609.609,0,0,0,0-1.218Z" transform="translate(-85.334 -418.133)" fill="#fff"/>
    </g>
  </g>
  <g id="Group_64" data-name="Group 64" transform="translate(24.978 32.288)">
    <g id="Group_63" data-name="Group 63">
      <path id="Path_287" data-name="Path 287" d="M356.568,452.267h-6.092a.609.609,0,0,0,0,1.218h6.092a.609.609,0,1,0,0-1.218Z" transform="translate(-349.867 -452.267)" fill="#fff"/>
    </g>
  </g>
  <g id="Group_66" data-name="Group 66" transform="translate(26.196 29.851)">
    <g id="Group_65" data-name="Group 65">
      <path id="Path_288" data-name="Path 288" d="M371.2,418.133h-3.655a.609.609,0,0,0,0,1.218H371.2a.609.609,0,0,0,0-1.218Z" transform="translate(-366.934 -418.133)" fill="#fff"/>
    </g>
  </g>
  <g id="Group_68" data-name="Group 68" transform="translate(9.747 17.667)">
    <g id="Group_67" data-name="Group 67">
      <path id="Path_289" data-name="Path 289" d="M140.616,247.643a.608.608,0,0,0-.861,0l-3.046,3.046a.609.609,0,1,0,.861.861l3.046-3.046A.608.608,0,0,0,140.616,247.643Z" transform="translate(-136.53 -247.464)" fill="#fff"/>
    </g>
  </g>
  <g id="Group_70" data-name="Group 70" transform="translate(12.793 17.667)">
    <g id="Group_69" data-name="Group 69">
      <path id="Path_290" data-name="Path 290" d="M183.283,250.689l-3.046-3.046a.609.609,0,1,0-.861.861l3.046,3.046a.609.609,0,1,0,.861-.861Z" transform="translate(-179.197 -247.464)" fill="#fff"/>
    </g>
  </g>
  <g id="Group_72" data-name="Group 72" transform="translate(14.621 16.449)">
    <g id="Group_71" data-name="Group 71">
      <path id="Path_291" data-name="Path 291" d="M208.883,230.576a.608.608,0,0,0-.861,0l-3.046,3.046a.609.609,0,1,0,.861.861l3.046-3.046A.608.608,0,0,0,208.883,230.576Z" transform="translate(-204.797 -230.397)" fill="#fff"/>
    </g>
  </g>
  <g id="Group_74" data-name="Group 74" transform="translate(17.667 16.449)">
    <g id="Group_73" data-name="Group 73">
      <path id="Path_292" data-name="Path 292" d="M251.55,233.622l-3.046-3.046a.609.609,0,0,0-.861.861l3.046,3.046a.609.609,0,1,0,.861-.861Z" transform="translate(-247.464 -230.397)" fill="#fff"/>
    </g>
  </g>
</svg>
