<svg xmlns="http://www.w3.org/2000/svg" xmlns:xlink="http://www.w3.org/1999/xlink" width="381.954" height="487.865" viewBox="0 0 381.954 487.865">
  <defs>
    <linearGradient id="linear-gradient" x1="0.125" y1="-0.111" x2="0.726" y2="1.498" gradientUnits="objectBoundingBox">
      <stop offset="0" stop-color="#e5e5e9"/>
      <stop offset="1" stop-color="#4c4c6e"/>
    </linearGradient>
  </defs>
  <g id="Me" transform="translate(-812.5 -134.663)">
    <g id="Js" transform="translate(968.966 151.615)">
      <path id="Path_193" data-name="Path 193" d="M585,276.09h44.405v44.4H585Z" transform="translate(-413.966 -180.705)" fill="#17001a"/>
      <path id="Path_273" data-name="Path 273" d="M275.6,69.2H256V30h19.6Z" transform="translate(-62.563 68.385)" fill="#300f33"/>
      <path id="Path_194" data-name="Path 194" d="M654.21,412.424l3.4-2.057c.656,1.163,1.252,2.146,2.683,2.146,1.372,0,2.236-.537,2.236-2.622V395.7H666.7v14.246c0,4.321-2.531,6.289-6.23,6.289a6.477,6.477,0,0,1-6.258-3.815m14.754-.447,3.4-1.967a4.538,4.538,0,0,0,4.114,2.531c1.73,0,2.831-.864,2.831-2.057,0-1.431-1.132-1.937-3.037-2.772l-1.043-.447c-3.01-1.281-5.008-2.89-5.008-6.289,0-3.13,2.384-5.514,6.11-5.514a6.168,6.168,0,0,1,5.931,3.338l-3.248,2.087a2.84,2.84,0,0,0-2.683-1.789,1.816,1.816,0,0,0-2,1.789c0,1.252.775,1.758,2.563,2.531l1.043.447c3.543,1.519,5.544,3.069,5.544,6.557,0,3.756-2.951,5.813-6.918,5.813-3.881,0-6.378-1.856-7.593-4.262" transform="translate(-471.498 -279.933)" fill="#5d0066"/>
    </g>
    <g id="Css" transform="translate(1144 159)">
      <path id="Path_227" data-name="Path 227" d="M218.758,350.739l-16.5-4.576L198.58,304.92h40.405L235.3,346.157Z" transform="translate(-198.58 -293.707)" fill="#17001a"/>
      <path id="Path_228" data-name="Path 228" d="M313.508,357.119l3.145-35.239H300.14v38.937Z" transform="translate(-279.934 -307.293)" fill="#300f33"/>
      <path id="Path_229" data-name="Path 229" d="M237.291,357.508l.454,5.057h11.32v-5.057Zm-.911-10.238.46,5.057h12.224V347.27H236.37Zm12.683,23.375h-.022l-5.634-1.522-.36-4.035H237.96l.708,7.942,10.361,2.883h.024Z" transform="translate(-228.852 -327.631)" fill="#5d0066"/>
      <path id="Path_230" data-name="Path 230" d="M246.38,248.56h6.126v2.563h-3.565v2.563h3.565v2.563H246.38Zm7.361,0h6.126v2.228h-3.573v.446h3.565v5.125h-6.128v-2.34H257.3v-.446h-3.565V248.56Zm7.361,0h6.126v2.228h-3.583v.446h3.565v5.125h-6.128v-2.34h3.565v-.446h-3.565V248.56Z" transform="translate(-236.87 -248.56)" fill="#17001a"/>
      <path id="Path_231" data-name="Path 231" d="M311.766,357.508l.913-10.238H300v5.057h7.128l-.46,5.173H300v5.057h6.229l-.6,6.565L300,370.649v5.262l10.369-2.875.076-.856,1.194-13.318.123-1.359Z" transform="translate(-279.822 -327.631)" fill="#601f66"/>
    </g>
    <g id="Html" transform="translate(670.067 51.814)">
      <path id="Path_219" data-name="Path 219" d="M938.635,337.49l-3.681,41.234-16.547,4.59-16.5-4.59L898.23,337.49Z" transform="translate(-475.297 -219.095)" fill="#17001a"/>
      <path id="Path_220" data-name="Path 220" d="M981.86,390.394l13.37-3.706,3.14-35.238H981.86Z" transform="translate(-538.725 -229.683)" fill="#300f33"/>
      <path id="Path_221" data-name="Path 221" d="M934.887,377.448h7.155V372.39H929.36l.121,1.358,1.244,13.938h11.319v-5.058h-6.694Zm1.15,12.766h-5.073l.708,7.942,10.348,2.884h.024v-5.278h-.022l-5.633-1.522Z" transform="translate(-498.907 -245.565)" fill="#5d0066"/>
      <path id="Path_222" data-name="Path 222" d="M913.8,291.09h2.57v2.539h2.35V291.09h2.57v7.691h-2.57v-2.575h-2.35v2.575H913.8Zm10.87,2.551h-2.263V291.09h7.1v2.551H927.24v5.14h-2.568v-5.14h0Zm5.962-2.551h2.681l1.65,2.7,1.647-2.7h2.681v7.691h-2.56v-3.812l-1.768,2.734h-.043l-1.771-2.734v3.812h-2.517Zm9.938,0h2.57v5.148h3.623v2.541h-6.186V291.09Z" transform="translate(-487.106 -183.904)" fill="#17001a"/>
      <path id="Path_223" data-name="Path 223" d="M981.79,387.678h6.227l-.587,6.561-5.64,1.522v5.273l10.37-2.875.075-.855,1.188-13.317.123-1.358H981.79v5.058Zm0-10.249v.012h12.218l.1-1.138.241-2.565.121-1.358H981.79v5.046Z" transform="translate(-538.672 -245.557)" fill="#601f66"/>
    </g>
    <g id="atom" transform="translate(871.728 146.217) rotate(30)">
      <path id="Path_259" data-name="Path 259" d="M177.42,200a5.217,5.217,0,1,0,5.217,5.217A5.218,5.218,0,0,0,177.42,200Zm0,8.348a3.13,3.13,0,1,1,3.13-3.13A3.131,3.131,0,0,1,177.42,208.348Zm0,0" transform="translate(-149.743 -173.914)"/>
      <path id="Path_260" data-name="Path 260" d="M45.834,31.3A53.388,53.388,0,0,0,50.3,27.065c4.463-4.827,6.017-8.775,4.493-11.413-2.191-3.791-9.552-3.088-18.031-.074C35.126,6.728,32.054,0,27.677,0S20.228,6.728,18.6,15.578C10.12,12.565,2.756,11.862.568,15.651-.955,18.29.6,22.238,5.061,27.065A53.5,53.5,0,0,0,9.521,31.3a53.387,53.387,0,0,0-4.464,4.239C.6,40.369-.956,44.316.567,46.955,1.611,48.764,3.835,49.55,6.8,49.55a37.5,37.5,0,0,0,11.8-2.523c1.629,8.852,4.7,15.58,9.078,15.58s7.449-6.728,9.078-15.579a37.522,37.522,0,0,0,11.8,2.522c2.96,0,5.184-.787,6.229-2.595,1.523-2.639-.031-6.586-4.493-11.413a53.5,53.5,0,0,0-4.46-4.239Zm7.15-14.608c.977,1.693-.6,5.04-4.218,8.953a52.288,52.288,0,0,1-4.56,4.3c-1.926-1.549-4.025-3.086-6.277-4.574-.164-2.642-.438-5.244-.818-7.721,8.409-3.019,14.541-3.257,15.869-.961ZM31.851,38.533q-2.122,1.223-4.174,2.276-2.049-1.052-4.174-2.276c-1.4-.807-2.745-1.643-4.059-2.49q-.115-2.294-.115-4.739t.115-4.739c1.313-.847,2.662-1.683,4.059-2.49q2.121-1.224,4.174-2.275,2.05,1.055,4.174,2.275c1.4.807,2.746,1.643,4.059,2.49q.115,2.294.115,4.739t-.115,4.739C34.6,36.89,33.248,37.726,31.851,38.533Zm3.9.093c-.152,1.963-.363,3.825-.626,5.575-1.647-.65-3.366-1.4-5.143-2.249.981-.522,1.955-1.057,2.914-1.61s1.922-1.134,2.855-1.715ZM25.375,41.947c-1.774.849-3.5,1.6-5.143,2.249-.26-1.75-.471-3.612-.626-5.575q1.4.871,2.852,1.715c.962.557,1.937,1.088,2.918,1.61ZM17.3,34.614Q14.92,32.983,12.8,31.3q2.112-1.677,4.5-3.315c-.038,1.106-.06,2.213-.06,3.315s.022,2.209.06,3.315Zm2.306-10.637c.152-1.962.363-3.823.626-5.572,1.645.649,3.362,1.4,5.137,2.247q-1.469.78-2.908,1.609-1.459.845-2.855,1.72ZM29.982,20.66c1.774-.849,3.5-1.6,5.141-2.248.26,1.75.471,3.612.626,5.575q-1.4-.877-2.855-1.721c-.958-.553-1.931-1.084-2.912-1.606Zm8.07,7.334q2.382,1.629,4.5,3.31-2.112,1.676-4.5,3.315c.037-1.106.059-2.213.059-3.315s-.022-2.209-.059-3.315ZM27.677,2.087c2.656,0,5.514,5.433,7.1,14.227-2.335.909-4.728,1.973-7.1,3.154-2.373-1.181-4.767-2.245-7.1-3.154,1.577-8.793,4.435-14.227,7.09-14.227ZM6.592,25.648c-3.618-3.913-5.194-7.26-4.218-8.953.589-1.021,2.123-1.541,4.382-1.541a36.455,36.455,0,0,1,11.49,2.5c-.38,2.473-.654,5.075-.818,7.715-2.252,1.488-4.35,3.026-6.277,4.574a52.231,52.231,0,0,1-4.56-4.3ZM2.375,45.912c-.977-1.693.6-5.04,4.218-8.953a52.208,52.208,0,0,1,4.559-4.3c1.926,1.549,4.025,3.086,6.277,4.574.164,2.642.438,5.244.818,7.721C9.834,47.969,3.7,48.207,2.375,45.912Zm25.3,14.608c-2.656,0-5.512-5.433-7.1-14.226,2.334-.909,4.728-1.973,7.1-3.153,2.373,1.18,4.766,2.244,7.1,3.153C33.19,55.087,30.333,60.52,27.677,60.52Zm25.3-14.608c-1.327,2.3-7.463,2.058-15.872-.964.38-2.474.654-5.077.818-7.722,2.252-1.488,4.35-3.026,6.277-4.573a52.13,52.13,0,0,1,4.56,4.3c3.618,3.916,5.194,7.263,4.218,8.956Zm0,0" transform="translate(0 0)"/>
      <path id="Path_261" data-name="Path 261" d="M3.52,0a3.52,3.52,0,1,0,3.52,3.52A3.521,3.521,0,0,0,3.52,0Zm.053,3.431c-1.166,0,0,1.166,0,0s-1.166,0,0,0,0-1.166,0,0S4.741,3.431,3.574,3.431Zm0,0" transform="translate(24.452 27.641)"/>
    </g>
    <g id="experience" transform="translate(1086.201 247)">
      <path id="Path_265" data-name="Path 265" d="M44.4,44.4H0V0H44.4Z" fill="#17001a"/>
      <path id="Path_266" data-name="Path 266" d="M278.2,44.4H256V0h22.2Z" transform="translate(-233.799)" fill="#17001a"/>
      <path id="Path_267" data-name="Path 267" d="M69.2,69.2H30V30H69.2Z" transform="translate(-27.398 -27.398)" fill="#17001a"/>
      <path id="Path_268" data-name="Path 268" d="M275.6,69.2H256V30h19.6Z" transform="translate(-233.799 -27.398)" fill="#300f33"/>
      <path id="Path_269" data-name="Path 269" d="M113.583,181.6l3.684,5.495,3.663-5.495h3.1l-5.266,7.493,5.1,7.285h-3.1l-3.5-5.287-3.517,5.287h-3.122l5.1-7.285-5.266-7.493Z" transform="translate(-100.882 -165.851)" fill="#5d0066"/>
      <g id="Group_37" data-name="Group 37" transform="translate(22.201 15.333)">
        <path id="Path_270" data-name="Path 270" d="M271.163,192.2c-3.2,0-5.183-2.669-5.183-5.661,0-3.393,2.284-5.64,4.87-5.64a4.225,4.225,0,0,1,3.684,2.1v-6.2h2.789v11.989c0,.291.409.819.645.833v2.373a6.341,6.341,0,0,1-1.186.146,1.8,1.8,0,0,1-1.832-2.04A4.359,4.359,0,0,1,271.163,192.2Zm.728-2.373A2.992,2.992,0,0,0,274.534,188v-2.6c-.111-.305-1.11-2.123-2.81-2.123-1.9,0-2.851,1.884-2.851,3.33A3.127,3.127,0,0,0,271.891,189.829Z" transform="translate(-265.115 -176.8)" fill="#601f66"/>
        <path id="Path_271" data-name="Path 271" d="M256,181.6v1.35l.949-1.35Z" transform="translate(-256 -181.184)" fill="#601f66"/>
        <path id="Path_272" data-name="Path 272" d="M256,340.23h.782L256,339.112Z" transform="translate(-256 -325.036)" fill="#601f66"/>
      </g>
    </g>
    <g id="undraw_dev_productivity_umsq" transform="translate(694.745 141.878)">
      <g id="Me-2" data-name="Me">
        <line id="Line_13" data-name="Line 13" x2="375" transform="translate(117.755 79.622)" fill="none" stroke="#17001a" stroke-width="2"/>
        <line id="Line_12" data-name="Line 12" x2="375" transform="translate(117.755 165.622)" fill="none" stroke="#17001a" stroke-width="2"/>
        <path id="Path_124" data-name="Path 124" d="M579.061,260.562s10,75.366-5.383,83.826,91.516,9.228,91.516,9.228-23.84-65.369-13.073-85.364Z" transform="translate(-304.105 -148.589)" fill="#ee9f9f"/>
        <g id="Head" transform="translate(-5 37)">
          <path id="Path_262" data-name="Path 262" d="M98.053.291a13.355,13.355,0,0,0-7.746,1.73C88,3.6,86.55,6.365,85.067,8.937A82.725,82.725,0,0,1,62.531,34.393C55.835,39.3,47.322,45.416,48.468,54.46a27.121,27.121,0,0,0,3.264,8.471C57.909,75.4,74.766,85.037,73.108,99.267c6.137-10.275-2.072-15.355,4.066-25.63,2.923-4.893,8-10.416,12.413-7.344,1.478,1.029,2.448,2.874,3.986,3.777,3.671,2.154,7.576-1.964,10.826-4.881,11.205-10.059,27.14-7.424,41.083-4.29,6.583,1.48,13.812,3.421,17.7,9.712,5.116,8.272-4.862,17.206-7.382,26.558a5.1,5.1,0,0,0,5.469,6.342c4.183-.413,9.14-.751,9.388-2.587,5.264.187,11.712-.409,13.968-5.89a23,23,0,0,0,1.081-6.7c.828-9.207,4.736-17.607,7.325-26.37s3.714-19.033-.653-26.8a31.059,31.059,0,0,0-5.724-6.956C161.866,4.212,129.271.256,98.053.291Z" transform="translate(200.299 -44.462)" fill="#4b3621"/>
          <path id="Path_263" data-name="Path 263" d="M109.767,125.764A53.192,53.192,0,1,0,56.575,72.572,53.192,53.192,0,0,0,109.767,125.764Z" transform="translate(209.357 -25.499)" fill="#f6a1a1"/>
          <path id="Path_264" data-name="Path 264" d="M94.663,7.24a12.237,12.237,0,0,0-6.306,1.223,14.7,14.7,0,0,0-4.265,4.888A62.1,62.1,0,0,1,65.747,31.343C60.3,34.811,53.366,39.134,54.3,45.526a17.741,17.741,0,0,0,2.657,5.987,47.094,47.094,0,0,1,5.723,29.353L77.666,59.08c2.379-3.458,6.512-7.362,10.1-5.19,1.2.727,1.993,2.032,3.245,2.67,2.988,1.523,6.167-1.388,8.813-3.45,9.121-7.109,22.093-5.247,33.443-3.032,5.359,1.046,11.244,2.418,14.413,6.865,5.264,7.39-.233,18.067,2.84,26.6a7.849,7.849,0,0,0,3.244-5.179c4.286.132,9.536-.289,11.372-4.163a14.313,14.313,0,0,0,.88-4.738c.673-6.508,3.856-12.444,5.962-18.638s3.024-13.452-.531-18.944a22.928,22.928,0,0,0-4.659-4.917C146.609,10.011,120.075,7.215,94.663,7.24Z" transform="translate(206.316 -37.304)" fill="#4b3621"/>
        </g>
        <path id="Path_125" data-name="Path 125" d="M715.8,374.733l-8.89,40.482-18.8,85.647-.563,4.69-6.487,54.3-4.315,36.073-2.894,24.231c-17.593,9.042-30.343,15.284-30.343,15.284s-1.1-5.5-2.865-12.534c-12.347,3.7-35.193,9.843-54.553,11.069,7.05,7.858,9.9,5.871,5.51,11.319-5,.392-5.428,2.6-9.687,2.932-20.366,1.6-61.029-13.61-77.1-24.374a51.84,51.84,0,0,0-.505,9.28L489.653,621.86l1.45-25.934,2.446-43.881,3.074-55.029a57.788,57.788,0,0,1-2.432-7.238c-4.488-15.962-9.936-47.835-14.115-74.563-3.363-21.511-5.888-39.688-6.422-43.556-.072-.505-.108-.765-.108-.765l81.13-35.849c5.766,13.371,32.689,17.391,32.689,17.391,22.3-1.537,39.789-13.3,39.789-13.3Z" transform="translate(-276.65 -169.325)"/>
        <path id="Path_126" data-name="Path 126" d="M680.086,720.494s-3.435,1.176-9.02,2.843c-12.347,3.7-35.193,9.843-54.553,11.069-16.669,1.068-30.755-1.5-33.331-12.375-1.1-4.676.462-8.522,3.875-11.683,10.189-9.446,36.8-12.83,57.909-13.992,5.96-.325,11.473-.476,16.063-.534,7.793-.1,12.9.058,12.9.058l.123.476Z" transform="translate(-307.075 -269.755)" fill="#a0616a"/>
        <path id="Path_128" data-name="Path 128" d="M832.814,576.153c-5.4,5.859-18.8,14.685-35.034,24.239-6.04,3.55-12.469,7.209-19.029,10.846-15.652,8.681-32.039,17.282-45.562,24.231-17.593,9.042-30.343,15.284-30.343,15.284s-1.1-5.5-2.865-12.534c-2.367-9.417-5.932-21.59-9.648-26.981-.13-.188-.26-.361-.39-.534-1.082-1.422-2.172-2.251-3.247-2.251l53.7-33.287,23.207-14.389-16.719-39.912L725.916,470.8l12.657-40.273,12.722-40.482h23.842s7.894,17.232,17.99,41.261c1.508,3.594,3.067,7.339,4.654,11.206C818.548,493.025,844.439,563.561,832.814,576.153Z" transform="translate(-335.991 -184.636)"/>
        <path id="Path_130" data-name="Path 130" d="M507.823,609.575a34.473,34.473,0,0,0-5.845.476c-16.59,2.85-21.482,17.867-22.875,27.926a51.836,51.836,0,0,0-.505,9.28l-14.656-11.271-5.34-4.106c-12.852-4.481-24.3-12.44-34.233-21.828a172.086,172.086,0,0,1-23.055-27.342,241.12,241.12,0,0,1-17.838-30.6,22.5,22.5,0,0,1-.31-19.086l18.148-40.446,26.526-59.114q.292-2.111.642-4.128c5.26-30.163,19.353-43.556,19.353-43.556H458.6l7.2,43.556,8.948,54.113-6.271,20.45-14.49,47.229,13.848,15.038Z" transform="translate(-250.939 -183.45)"/>
        <path id="Path_131" data-name="Path 131" d="M564.18,511.072l9.2,10.738c3.42-.652,6.99-1.418,10.668-2.279l-2.644-8.459,6.464,7.541c38.965-9.583,87.261-28.216,87.261-28.216s-52.141,3.823-91.072-4.682c-17.225-3.763-34.948,4.776-42.016,20.928-4.109,9.389-3.463,17.522,11.108,17.522a96.249,96.249,0,0,0,14.687-1.381Z" transform="translate(-295.112 -211.026)" fill="#fff"/>
        <path id="Path_132" data-name="Path 132" d="M713.777,751.864l.177,3.313c0,.468,0,.8,0,1.532.03.55,0,.658,0,1.079,0,1.722-4.568,1.374-7.814,1.373H400.13c-3.246,0-7.528.31-7.531-.72V756.7c0-.873,0-1.431,0-1.9v-2.986c0-2.085,2.448-1.907,7.531-1.906h17.639v-.8c0-.042.04-.082.112-.111a.745.745,0,0,1,.272-.046h9.2a.745.745,0,0,1,.272.046c.072.03.112.07.112.111v.8h5.749v-.8c0-.042.04-.082.112-.111a.744.744,0,0,1,.272-.046h9.2a.745.745,0,0,1,.272.046c.072.03.112.07.112.111v.8h5.756v-.8c0-.042.04-.082.112-.111a.744.744,0,0,1,.272-.046h9.2a.745.745,0,0,1,.272.046c.072.03.112.07.112.111v.8h5.749v-.8c0-.042.04-.082.112-.111a.744.744,0,0,1,.272-.046h9.2a.745.745,0,0,1,.272.046c.072.03.112.07.112.111v.8h5.749v-.8c0-.042.04-.082.112-.111a.744.744,0,0,1,.272-.046h9.2a.745.745,0,0,1,.272.046c.072.03.112.07.112.111v.8h5.756v-.8c0-.042.04-.082.112-.111a.745.745,0,0,1,.272-.046h9.2a.744.744,0,0,1,.272.046c.072.03.112.07.112.111v.8H512.1v-.8c0-.042.04-.082.112-.111a.744.744,0,0,1,.271-.046h72.091a.745.745,0,0,1,.272.046c.072.03.112.07.112.111v.8h5.756v-.8c0-.042.04-.082.112-.111a.744.744,0,0,1,.272-.046h9.2c.211,0,.382.071.384.157v.8h5.749v-.8c0-.042.04-.082.112-.111a.745.745,0,0,1,.272-.046h9.2a.745.745,0,0,1,.272.046c.072.03.112.07.112.111v.8h5.749v-.8c0-.042.04-.082.112-.111a.745.745,0,0,1,.272-.046h9.2a.744.744,0,0,1,.271.046c.072.03.112.07.112.111v.8h5.756v-.8c0-.042.04-.082.112-.111a.744.744,0,0,1,.272-.046h9.2c.21,0,.378.071.377.157v.8h5.756v-.8c0-.042.04-.082.112-.111a.745.745,0,0,1,.272-.046h9.2a.745.745,0,0,1,.271.046c.072.03.112.07.112.111v.8h5.75v-.8c0-.042.04-.082.112-.111a.745.745,0,0,1,.272-.046h9.2a.745.745,0,0,1,.272.046c.072.03.112.07.112.111v.8H706.14C711.223,749.907,713.779,749.78,713.777,751.864Z" transform="translate(-247.153 -278.556)" fill="#86869d"/>
        <path id="Path_133" data-name="Path 133" d="M711.369,509.19H591.264v-2.475H536.8v2.475H416.2a8.124,8.124,0,0,0-8.124,8.124V681.775A8.124,8.124,0,0,0,416.2,689.9H711.369a8.124,8.124,0,0,0,8.124-8.124V517.314a8.124,8.124,0,0,0-8.125-8.125Z" transform="translate(-258.078 -217.593)" fill="url(#linear-gradient)"/>
        <path id="Path_138" data-name="Path 138" d="M18.04-11.746C28-11.746,36.08,8.077,36.08,18.04S28,5.918,18.04,5.918,0,28,0,18.04,8.077-11.746,18.04-11.746Z" transform="translate(287 376.867)"/>
        <path id="Next" d="M368.507,322h23.279v1.85H370.641v13.925h19.884v1.85H370.641v15.289h21.387v1.85H368.508Zm25.364,0h2.473l10.96,15.289L418.508,322l15.238-19.42L408.712,338.9l12.9,17.869h-2.57l-11.736-16.262L395.52,356.768H393L406,338.9Zm28.662,1.85V322h26.528v1.85H436.84v32.914h-2.134V323.854ZM339.385,322h2.667l36.781,55.039-15.2-20.275-22.018-32.135-.1,32.135h-2.134Zm109.461,32.356a.774.774,0,1,1,.763-.774.754.754,0,0,1-.763.774Zm2.1-2.037h1.142a1.043,1.043,0,0,0,1.131,1.034c.742,0,1.163-.447,1.163-1.284v-5.3h1.163v5.306a2.149,2.149,0,0,1-2.315,2.375,2.091,2.091,0,0,1-2.283-2.131Zm6.119-.068h1.152c.1.712.794,1.164,1.8,1.164.934,0,1.619-.483,1.619-1.149,0-.572-.436-.915-1.427-1.148l-.965-.234c-1.355-.317-1.972-.972-1.972-2.074,0-1.336,1.09-2.224,2.725-2.224a2.444,2.444,0,0,1,2.7,2.151h-1.131a1.431,1.431,0,0,0-1.583-1.123c-.919,0-1.531.442-1.531,1.117,0,.535.394.842,1.37,1.071l.825.2c1.536.359,2.169.982,2.169,2.11,0,1.434-1.111,2.333-2.886,2.333-1.661,0-2.777-.857-2.86-2.2Z" transform="translate(-206.798 -213.462)"/>
      </g>
    </g>
  </g>
</svg>
